#!OML:ASF F:\VICON\USERDATA\INSTALL\rory3\rory3.ASF
:FULLY-SPECIFIED
:DEGREES
118
root 0.7020796320367615 18.049296979785098 24.01900258512692 4.001592596247424 -5.721843510149553 -2.891041840316543
lfemur -3.2753973285425317 -0.5449284211611172 -20.41445089907642
ltibia 49.809388651305085
lfoot 7.906862757388451 -11.08060749377232
ltoes -27.225964147039228
rfemur -26.596514008269537 3.4854696340309146 28.785671211394874
rtibia 80.72477690247906
rfoot 4.7659691769035515 -7.900400179960903
rtoes -3.5421356610810264
lowerback 13.241134664835362 1.3938745082826922 1.9357526474353768
upperback -1.2892267140019331 2.2237176357630073 1.0659596683291976
thorax -7.8419264447500625 1.1794536121534032 -0.27222378638448386
lowerneck -18.095568816860485 -4.654647355042088 -2.4407197341468505
upperneck 8.995796829669631 -6.614209959700125 5.801051753926773
head 6.501923662085515 -2.7412506709338462 1.5523699528466348
lclavicle -1.3367475555319748e-15 -2.7589793148677588e-15
lhumerus -45.960078752230295 -9.53828853580723 90.94467888154739
lradius 107.84367626223725
lwrist 31.743818249272692
lhand -22.382833674436732 3.146166053176901
lfingers 7.12502
lthumb 4.169382280602785 32.634441814105195
rclavicle -1.3367475554560313e-15 -2.758979314812219e-15
rhumerus -49.40692980157986 12.261057655417101 -95.26834342333618
rradius 111.785557559706
rwrist -23.531295741146003
rhand -19.30385820072054 42.941306276553405
rfingers 7.12502
rthumb 6.142557490629153 13.357490819676702
119
root 0.7094406389649008 18.036394982772258 24.335767309583336 3.919603415115406 -5.675134835290096 -2.8479458592603746
lfemur -3.5276009347060366 -0.6303923018700127 -20.329543303894948
ltibia 51.3917417185071
lfoot 7.4947907172164925 -10.961785914591097
ltoes -26.491418676593042
rfemur -26.36156842387423 3.4213684079185187 28.84963250569993
rtibia 79.5684850134336
rfoot 4.728854710941819 -7.9506599260880515
rtoes -4.701341462798526
lowerback 13.25696176395906 1.4096238147712299 1.9350417876559698
upperback -1.3397176093042225 2.2773572564909657 1.0773411918207012
thorax -7.985424997040527 1.1932633194708462 -0.3594450569458136
lowerneck -17.81658049927164 -4.747025764724675 -2.4822316335899943
upperneck 8.78101887230743 -6.7268326694839224 5.837402229041572
head 6.376670233977139 -2.793027150117789 1.5688606365137132
lclavicle -1.3367475555348214e-15 -2.758979314869879e-15
lhumerus -45.80540390970687 -9.87523170521365 91.01070399806535
lradius 107.88347799873382
lwrist 31.4906127236775
lhand -22.299116417954117 3.4566814058682014
lfingers 7.12502
lthumb 4.102319915865549 32.771760645189445
rclavicle -1.3367475554544854e-15 -2.7589793148108677e-15
rhumerus -49.54434666050286 12.198572321350575 -95.35492334799716
rradius 111.91914803190181
rwrist -23.340117319972006
rhand -19.314977804395514 42.865443865798824
rfingers 7.12502
rthumb 6.13872912398352 13.275094078146893
120
root 0.7090529326471462 18.006710694555267 24.13270474194144 3.7910357899080243 -5.669683622855884 -2.8151825596600237
lfemur -3.889591893488083 -0.6229157303009945 -20.19733555804155
ltibia 53.14414362656801
lfoot 7.0678089551826275 -10.38160737858552
ltoes -25.508120559007395
rfemur -26.045802770333665 3.392937534962515 28.929282059035803
rtibia 78.4919369904886
rfoot 4.566848216507681 -7.981700742866629
rtoes -7.166270586870791
lowerback 13.328868751531896 1.4416786251472709 1.9291815738521412
upperback -1.3014367036956203 2.306834065900235 1.0566248004743763
thorax -7.978228315949046 1.2058570925973306 -0.420361222875907
lowerneck -17.899164955643684 -4.861856206555827 -2.512558072264218
upperneck 8.656120540965757 -6.879762138675902 5.884096230415084
head 6.307386550065878 -2.865672588587321 1.577829303378285
lclavicle -1.3367475555348222e-15 -2.758979314869583e-15
lhumerus -45.2095663068545 -10.111645137339085 90.99164547326556
lradius 107.88373988299948
lwrist 31.22263769909115
lhand -22.44132408055312 3.3890523996773427
lfingers 7.12502
lthumb 4.137697668075183 32.92020533848827
rclavicle -1.3367475554532504e-15 -2.758979314809619e-15
rhumerus -49.596922244025215 12.15749826823851 -95.44841301234209
rradius 112.037670222022
rwrist -23.29366799830736
rhand -19.266217034403542 42.78471655050303
rfingers 7.12502
rthumb 6.1195078402119245 13.010541723104474
121
root 0.6904891121028714 17.978205641827298 24.09989985247924 3.6598000459431708 -5.660913439479575 -2.772265174723994
lfemur -4.373415217584631 -0.5419114419864085 -20.038825199571868
ltibia 55.07135625710395
lfoot 6.810660809227696 -9.710173919848856
ltoes -24.054852178414244
rfemur -25.725877002174848 3.4949500523095054 28.97397236816889
rtibia 77.43885571246139
rfoot 4.531084939755546 -8.07927063213291
rtoes -8.43929334157172
lowerback 13.489627263311903 1.4861635746338369 1.8489458622315653
upperback -1.247609518934068 2.3578327626023565 1.0630596497827152
thorax -8.028756645213669 1.2209544134398103 -0.43641325133028214
lowerneck -17.950614908870573 -4.940432932868762 -2.5052083205901456
upperneck 8.493169315975022 -6.988802516088047 5.912331454846753
head 6.219202609893419 -2.92191476542099 1.5836284377860517
lclavicle -1.3367475555362094e-15 -2.7589793148706456e-15
lhumerus -44.531415250616675 -10.300009678525878 90.99218967164423
lradius 107.91234758733208
lwrist 30.962183956069094
lhand -22.33786669680709 3.4687180767958163
lfingers 7.12502
lthumb 4.0320967480905034 32.936468290491625
rclavicle -1.3367475554523803e-15 -2.758979314808888e-15
rhumerus -49.69747836853285 12.013870603800092 -95.53510276949484
rradius 112.16344360645923
rwrist -23.033990339726834
rhand -19.271800046978285 42.55629899150757
rfingers 7.12502
rthumb 6.13783570331286 12.735610694337188
122
root 0.7020934725473049 17.95883797729453 24.37280769012105 3.5458074611319708 -5.571384249297268 -2.7136360946595848
lfemur -4.880392828654463 -0.4959913978801063 -19.919376934527364
ltibia 57.11217899637334
lfoot 6.363916939450559 -9.475119303559016
ltoes -23.50288424625775
rfemur -25.2199654973805 3.412933061270677 29.050524632723967
rtibia 76.37167260486447
rfoot 4.200262597032335 -7.938407746189007
rtoes -9.78950721119874
lowerback 13.514676445119457 1.496991644181484 1.8574690103535934
upperback -1.209351853771202 2.3669302678607966 0.9967838466858856
thorax -8.033064665151098 1.2206911701067633 -0.5442143745516022
lowerneck -17.99966980574469 -4.989045047248413 -2.5009015754541672
upperneck 8.291162251942074 -7.053209185090771 5.9377105560745775
head 6.106690643699155 -2.9537351364684628 1.5925418373811062
lclavicle -1.3367475555373312e-15 -2.7589793148715792e-15
lhumerus -43.92925229293913 -10.340444411720155 91.07357121591973
lradius 108.04659488716253
lwrist 30.848722615690367
lhand -22.373055932805368 3.5065699732696474
lfingers 7.12502
lthumb 3.7487015285778256 32.73074859822509
rclavicle -1.3367475554535936e-15 -2.7589793148098812e-15
rhumerus -49.80528223419198 11.91620264282363 -95.64817246634868
rradius 112.24339621696075
rwrist -22.905852087703817
rhand -19.24044059339248 42.29079046261588
rfingers 7.12502
rthumb 6.113365015045792 12.337268215315484
123
root 0.7150068044789933 17.937726473039085 24.607225908918817 3.4399614826918237 -5.450301861791613 -2.7005011868403654
lfemur -5.439020197460112 -0.4394862052494507 -19.71624702082769
ltibia 59.37530616337459
lfoot 6.446855419052449 -9.205956002996755
ltoes -22.537280805676325
rfemur -24.63910878240801 3.3009642645094575 29.177384723878095
rtibia 75.32963092923355
rfoot 3.8699973557391587 -7.575461792574322
rtoes -10.60667493305515
lowerback 13.531831708306285 1.5029921213781936 1.9043351032609546
upperback -1.159072601774028 2.370227484257767 0.9153296263853103
thorax -7.986853211218455 1.2149554459726981 -0.6393848425970055
lowerneck -18.1449608130898 -5.027827556197114 -2.4917854664340235
upperneck 8.087317183721996 -7.110131575640003 5.976780160287706
head 5.9963078463343065 -2.9816725048465806 1.606731620065888
lclavicle -1.3367475555380366e-15 -2.758979314872169e-15
lhumerus -43.16629674884402 -10.317352853071501 91.11797818186822
lradius 108.27763058526298
lwrist 30.85668017487826
lhand -22.35916121229573 3.5814978743953474
lfingers 7.12502
lthumb 3.4690257533594933 32.549029464237634
rclavicle -1.3367475554545343e-15 -2.7589793148106543e-15
rhumerus -49.90587573232277 11.78579227771702 -95.78542264056426
rradius 112.31128344830054
rwrist -22.69131066215831
rhand -19.249630458546292 41.91984958185093
rfingers 7.12502
rthumb 6.142383938621453 11.981688955041836
124
root 0.714248673089275 17.90525413205441 24.884719927907877 3.328795577202933 -5.348523808853902 -2.7008913119820694
lfemur -6.1013009385505885 -0.31394711789250096 -19.473563438376793
ltibia 61.77676144953935
lfoot 6.0946809205733254 -9.020752345279012
ltoes -24.3402467240739
rfemur -24.027422389434452 3.247163555578329 29.297865823044734
rtibia 74.41281053341552
rfoot 3.3618637045534663 -7.323729630379095
rtoes -8.669185950074299
lowerback 13.610595265785232 1.5223548905079978 1.918245390886309
upperback -1.0933907833446095 2.3930059970442934 0.829457459426075
thorax -7.993437080619544 1.2172383811658203 -0.6725120863446341
lowerneck -18.15672893201569 -5.046351512298999 -2.469829792207901
upperneck 7.818811641022123 -7.133978990613482 6.014690416598487
head 5.831362886106354 -3.001750268475472 1.6265996050676206
lclavicle -1.3367475555360254e-15 -2.758979314870962e-15
lhumerus -42.25148553386727 -10.556177121083905 91.16734611257014
lradius 108.4792924868091
lwrist 30.711037860122154
lhand -22.46639018011943 3.5815486808866708
lfingers 7.12502
lthumb 3.2293126887751367 32.51123214353553
rclavicle -1.3367475554510595e-15 -2.7589793148082956e-15
rhumerus -49.96022205678177 11.614590339998001 -95.8913016602317
rradius 112.38560907509118
rwrist -22.519073662052502
rhand -19.28399165851115 41.55858871796207
rfingers 7.12502
rthumb 6.100169251060932 11.488643403687345
125
root 0.7030448847523518 17.864843343928843 25.108686309648512 3.2077408737435467 -5.239334540565052 -2.6973459906980795
lfemur -6.856506430920621 -0.15384265532097308 -19.21029511550526
ltibia 64.24392987136304
lfoot 5.715557873243142 -8.630090019141871
ltoes -25.662429307337312
rfemur -23.542368180007188 3.3339310271846765 29.361252959115216
rtibia 73.61837810869127
rfoot 2.947383599835805 -7.105165040306829
rtoes -8.985931993107418
lowerback 13.759443303248391 1.5498449555506966 1.8991377674033256
upperback -1.0826516414141933 2.435239546605098 0.806505160531778
thorax -8.182923375814799 1.2234523153561776 -0.6998044785276305
lowerneck -18.07446912685403 -5.031982143793013 -2.419933487013615
upperneck 7.494095391869424 -7.123225603417451 6.036613361905201
head 5.6183103453072185 -3.0078507363322373 1.6463255563581516
lclavicle -1.3367475555391303e-15 -2.7589793148734583e-15
lhumerus -41.84146677244839 -10.568135926047354 91.21488659943702
lradius 108.86158703234275
lwrist 30.77999187273001
lhand -22.619705409727892 3.5445187709777266
lfingers 7.12502
lthumb 3.3486226838245177 32.7002904748954
rclavicle -1.3367475554456407e-15 -2.758979314804138e-15
rhumerus -50.03947064876666 11.475587634107436 -96.03463173192262
rradius 112.43313885708787
rwrist -22.27298598123598
rhand -19.300859939321747 41.18890528404972
rfingers 7.12502
rthumb 6.130040788539024 11.108712153580122
